HIERARCHY
ROOT Hips
{
  OFFSET -64.0429 97.9534 35.0417
  CHANNELS 6 Xposition Yposition Zposition Zrotation Xrotation Yrotation
  JOINT ToSpine
  {
    OFFSET -2.69724 7.43032 -0.144315
    CHANNELS 3 Zrotation Xrotation Yrotation
    JOINT Spine
    {
      OFFSET -0.0310711 10.7595 1.96963
      CHANNELS 3 Zrotation Xrotation Yrotation
      JOINT Spine1
      {
        OFFSET 13.1342 3.43533 0.764692
        CHANNELS 3 Zrotation Xrotation Yrotation
        JOINT Neck
        {
          OFFSET 29.8703 7.82586 -0.130764
          CHANNELS 3 Zrotation Xrotation Yrotation
          JOINT Head
          {
            OFFSET 9.52751 0.295786 -0.907742
            CHANNELS 3 Zrotation Xrotation Yrotation
            End Site
            {
              OFFSET 16.4037 0.713936 2.7358
            }
          }
        }
        JOINT LeftShoulder
        {
          OFFSET 27.5574 4.95586 2.47156
          CHANNELS 3 Zrotation Xrotation Yrotation
          JOINT LeftArm
          {
            OFFSET 1.20734 -0.998971 20.1238
            CHANNELS 3 Zrotation Xrotation Yrotation
            JOINT LeftForeArm
            {
              OFFSET 26.8049 -0.0536703 -0.155908
              CHANNELS 3 Zrotation Xrotation Yrotation
              JOINT LeftHand
              {
                OFFSET 26.6817 0 0.320147
                CHANNELS 3 Zrotation Xrotation Yrotation
                End Site
                {
                  OFFSET 18.6119 0 0.382219
                }
              }
            }
          }
        }
        JOINT RightShoulder
        {
          OFFSET 27.5927 4.71444 -2.65209
          CHANNELS 3 Zrotation Xrotation Yrotation
          JOINT RightArm
          {
            OFFSET 2.83739 -1.17114 -18.7564
            CHANNELS 3 Zrotation Xrotation Yrotation
            JOINT RightForeArm
            {
              OFFSET 28.839 -0.0548439 1.22491
              CHANNELS 3 Zrotation Xrotation Yrotation
              JOINT RightHand
              {
                OFFSET 26.5114 0 -0.101894
                CHANNELS 3 Zrotation Xrotation Yrotation
                End Site
                {
                  OFFSET 18.2168 0 0
                }
              }
            }
          }
        }
      }
    }
  }
  JOINT LeftUpLeg
  {
    OFFSET -4.76168 -1.9167 -10.2353
    CHANNELS 3 Zrotation Xrotation Yrotation
    JOINT LeftLeg
    {
      OFFSET 2.55951 -42.0585 -8.02213
      CHANNELS 3 Zrotation Xrotation Yrotation
      JOINT LeftFoot
      {
        OFFSET 3.16357 -42.5282 -3.95426
        CHANNELS 3 Zrotation Xrotation Yrotation
        JOINT LeftToeBase
        {
          OFFSET 0.346054 -6.02161 12.8035
          CHANNELS 3 Zrotation Xrotation Yrotation
          End Site
          {
            OFFSET 0.134235 -1.35082 5.13018
          }
        }
      }
    }
  }
  JOINT RightUpLeg
  {
    OFFSET -4.94151 -1.41743 10.6446
    CHANNELS 3 Zrotation Xrotation Yrotation
    JOINT RightLeg
    {
      OFFSET -2.56294 -42.0364 -7.94377
      CHANNELS 3 Zrotation Xrotation Yrotation
      JOINT RightFoot
      {
        OFFSET -3.0952 -42.555 -4.02241
        CHANNELS 3 Zrotation Xrotation Yrotation
        JOINT RightToeBase
        {
          OFFSET -0.0828122 -6.13587 12.8035
          CHANNELS 3 Zrotation Xrotation Yrotation
          End Site
          {
            OFFSET -0.131328 -1.35082 5.13018
          }
        }
      }
    }
  }
}
MOTION
Frames:	20
Frame Time:	0.00833333
-65.4528 40.1217 18.5242 -19.0706 -78.068 -110.998 -70.1915 0 88.8779 158.265 25.1022 -85.5286 -13.2742 27.2529 0.685814 -153.011 20.6039 174.877 -159.987 60.124 -172.483 -0.314591 -26.1215 -24.6011 -76.7986 -23.6277 -125.975 -41.3911 -30.3636 -59.3779 0.854155 0.0121372 1.86245 -2.44726 16.0058 28.65 -80.7452 17.6883 140.148 -29.0316 40.1871 40.3526 -2.76708 -0.0414088 1.57931 29.718 5.24535 81.7004 -170.947 36.2633 168.042 5.64991 -19.2167 -1.39802 10.4621 -20.2901 28.5597 32.2062 6.4271 85.2718 173.077 37.2427 173.746 -5.74131 -28.6248 1.72298 3.05423 -11.7333 -27.1956 
-65.4499 40.2164 18.4969 -19.1936 -78.192 -111.115 -70.1915 0 88.8779 158.296 24.9902 -85.5572 -13.3195 27.2112 0.725232 -152.962 20.597 174.89 -159.909 60.1086 -172.589 -0.297772 -26.0359 -24.5651 -76.9503 -23.4836 -125.972 -41.1346 -30.1725 -59.2956 0.851492 0.0121822 1.86728 -2.45255 16.0125 28.6837 -80.769 17.6554 140.106 -29.0162 40.0754 40.4002 -2.74663 -0.0410647 1.5805 29.4881 5.24289 81.7881 -170.954 36.427 168.215 5.62165 -19.3357 -1.40316 10.1255 -19.9385 27.9499 31.9275 6.40121 85.3103 173.064 37.3598 173.832 -5.72711 -28.638 1.7256 3.03652 -11.9252 -27.274 
-65.4467 40.3174 18.4731 -19.3415 -78.3197 -111.266 -70.1915 0 88.8779 158.33 24.8837 -85.5919 -13.3632 27.1832 0.765168 -152.885 20.5653 174.889 -159.733 60.0586 -172.784 -0.296985 -26.0477 -24.5714 -77.1234 -23.3316 -125.918 -40.6802 -29.8749 -59.1205 0.862027 0.01243 1.88839 -2.46402 16.017 28.7546 -80.7962 17.6325 140.048 -28.9638 39.9402 40.4185 -2.73673 -0.0411016 1.59214 29.2557 5.23854 81.9006 -170.965 36.6116 168.428 5.55276 -19.5023 -1.4116 9.67017 -19.4384 27.0997 31.6443 6.37343 85.3634 173.048 37.4817 173.934 -5.71615 -28.6463 1.72712 3.01942 -12.1248 -27.3912 
-65.442 40.4255 18.4482 -19.4702 -78.4409 -111.393 -70.1915 0 88.8779 158.371 24.7854 -85.6202 -13.3975 27.1603 0.800457 -152.817 20.5295 174.876 -159.532 60.0012 -173.015 -0.306737 -26.1241 -24.6018 -77.2941 -23.1843 -125.877 -40.2332 -29.5917 -58.942 0.875825 0.012711 1.91198 -2.47857 16.021 28.8431 -80.8424 17.5879 140 -28.9052 39.8123 40.4256 -2.73012 -0.0412134 1.6045 29.0228 5.22038 82.0068 -170.975 36.8083 168.63 5.45669 -19.6592 -1.42096 9.24381 -18.9411 26.2583 31.3584 6.33662 85.4129 173.032 37.6182 174.039 -5.72393 -28.6504 1.72589 3.00567 -12.2798 -27.4853 
-65.4372 40.5443 18.4223 -19.5328 -78.5456 -111.437 -70.1915 0 88.8779 158.42 24.6978 -85.6295 -13.4147 27.1342 0.825929 -152.795 20.5102 174.852 -159.383 59.9636 -173.232 -0.317868 -26.2012 -24.63 -77.4378 -23.0537 -125.912 -39.9953 -29.445 -58.8442 0.882949 0.0128558 1.92425 -2.4918 16.0186 28.9279 -80.9234 17.4903 139.99 -28.8711 39.7222 40.4393 -2.71954 -0.0410937 1.60783 28.7912 5.17785 82.0763 -170.979 37.0084 168.766 5.34701 -19.749 -1.42882 8.97519 -18.6106 25.6668 31.0717 6.28411 85.4406 173.016 37.779 174.134 -5.76593 -28.6509 1.72023 2.99899 -12.3382 -27.4938 
-65.4339 40.677 18.3954 -19.4809 -78.6297 -111.344 -70.1915 0 88.8779 158.483 24.6257 -85.6111 -13.4017 27.1094 0.831954 -152.845 20.5175 174.8 -159.289 59.9553 -173.455 -0.320975 -26.2151 -24.629 -77.5326 -22.9627 -126.066 -40.0917 -29.5217 -58.8704 0.879059 0.0127771 1.91801 -2.49925 16.0036 28.9875 -81.0745 17.2924 140.045 -28.8643 39.6858 40.453 -2.70216 -0.0406011 1.59699 28.5699 5.10034 82.0937 -170.973 37.2096 168.781 5.19851 -19.7344 -1.43506 8.91268 -18.5299 25.431 30.7861 6.20732 85.4409 173.002 37.9696 174.201 -5.85047 -28.6564 1.7093 3.00417 -12.2353 -27.3519 
-65.4342 40.8267 18.3671 -19.3478 -78.699 -111.154 -70.1915 0 88.8779 158.555 24.5663 -85.5735 -13.3662 27.0881 0.824057 -152.941 20.539 174.726 -159.217 59.961 -173.701 -0.313022 -26.1371 -24.5822 -77.5962 -22.897 -126.297 -40.3907 -29.7388 -58.9686 0.870019 0.0125793 1.90178 -2.49636 15.9595 29.0097 -81.2762 17.0236 140.143 -28.8701 39.6841 40.4609 -2.68214 -0.0399188 1.57803 28.3551 4.99674 82.0788 -170.957 37.4163 168.716 5.01363 -19.6533 -1.44079 8.97336 -18.6049 25.4045 30.5001 6.11232 85.4246 172.989 38.1841 174.253 -5.96789 -28.6637 1.69413 3.01672 -12.0152 -27.1096 
-65.4368 40.9907 18.3374 -19.21 -78.758 -110.95 -70.1915 0 88.8779 158.633 24.5113 -85.531 -13.3321 27.0583 0.819784 -153.045 20.5611 174.663 -159.178 59.9707 -173.911 -0.299477 -26.0051 -24.507 -77.6627 -22.8133 -126.541 -40.7068 -29.9645 -59.0762 0.861195 0.0123805 1.88536 -2.48662 15.8946 29.0083 -81.4623 16.7673 140.237 -28.8937 39.6955 40.4817 -2.66276 -0.0392279 1.55795 28.1294 4.88616 82.0539 -170.941 37.6313 168.665 4.84732 -19.5614 -1.44536 9.0809 -18.7393 25.4465 30.2102 6.0145 85.3993 172.975 38.4145 174.32 -6.10673 -28.656 1.67586 3.02814 -11.7896 -26.8753 
-65.4376 41.1646 18.3072 -19.1458 -78.8114 -110.815 -70.1915 0 88.8779 158.713 24.4525 -85.4973 -13.3235 27.008 0.836664 -153.118 20.5702 174.642 -159.186 59.9751 -174.028 -0.283464 -25.8551 -24.4288 -77.7663 -22.6691 -126.735 -40.8528 -30.0676 -59.127 0.857954 0.0122988 1.87853 -2.47765 15.8401 29.0003 -81.5678 16.6076 140.28 -28.94 39.6982 40.5343 -2.64732 -0.0387094 1.54376 27.8758 4.7881 82.0399 -170.934 37.8571 168.724 4.75452 -19.5143 -1.44811 9.15886 -18.8367 25.416 29.9132 5.92918 85.3715 172.955 38.653 174.436 -6.2555 -28.6163 1.65564 3.03325 -11.6723 -26.7563 
-65.4325 41.3438 18.2772 -19.2277 -78.8584 -110.814 -70.1915 0 88.8779 158.8 24.3887 -85.4817 -13.35 26.9258 0.88939 -153.147 20.561 174.688 -159.266 59.9726 -174.007 -0.267651 -25.7236 -24.3721 -77.9328 -22.4221 -126.861 -40.7293 -29.9797 -59.0845 0.863539 0.0124021 1.88685 -2.477 15.8275 29.003 -81.5554 16.582 140.251 -29.0134 39.6844 40.6285 -2.63681 -0.0384172 1.53753 27.5759 4.70835 82.0366 -170.943 38.0897 168.954 4.79017 -19.5366 -1.44738 9.19681 -18.8838 25.3023 29.6052 5.86433 85.3345 172.924 38.897 174.639 -6.42696 -28.5274 1.63142 3.03264 -11.7074 -26.813 
-65.4163 41.526 18.2496 -19.3988 -78.8973 -110.892 -70.1915 0 88.8779 158.895 24.3239 -85.4748 -13.3975 26.821 0.965168 -153.153 20.5412 174.777 -159.403 59.9682 -173.888 -0.250974 -25.6135 -24.3467 -78.1382 -22.1061 -126.951 -40.4528 -29.7818 -58.9907 0.874483 0.0126154 1.9041 -2.48915 15.8827 29.0177 -81.4667 16.6405 140.179 -29.1103 39.6662 40.7524 -2.62944 -0.0382528 1.53546 27.2436 4.63623 82.0342 -170.966 38.3286 169.294 4.91154 -19.5955 -1.44401 9.23224 -18.9277 25.1718 29.2891 5.81005 85.2871 172.885 39.1504 174.904 -6.62186 -28.4027 1.60341 3.02872 -11.8298 -26.9773 
-65.3926 41.7141 18.2232 -19.5419 -78.9311 -110.943 -70.1915 0 88.8779 158.985 24.258 -85.4629 -13.4541 26.7117 1.04035 -153.153 20.5174 174.876 -159.554 59.9618 -173.742 -0.232395 -25.5076 -24.3384 -78.3423 -21.7935 -127.018 -40.1586 -29.5672 -58.8946 0.88609 0.012842 1.92247 -2.50933 15.983 29.0365 -81.3558 16.7372 140.093 -29.2234 39.6517 40.893 -2.62431 -0.0381691 1.53574 26.9097 4.56706 82.0394 -170.992 38.5829 169.657 5.02704 -19.6601 -1.44112 9.25982 -18.9632 24.9979 28.9713 5.7552 85.2438 172.844 39.4158 175.162 -6.81073 -28.2706 1.57621 3.02082 -11.9906 -27.1636 
-65.3701 41.9108 18.1942 -19.5386 -78.9627 -110.864 -70.1915 0 88.8779 159.057 24.1908 -85.4325 -13.5082 26.6162 1.09139 -153.162 20.4959 174.951 -159.677 59.9537 -173.639 -0.214349 -25.4127 -24.3354 -78.5053 -21.5562 -127.075 -39.9801 -29.4296 -58.8425 0.893663 0.0129852 1.93412 -2.53107 16.0872 29.0623 -81.277 16.826 140.021 -29.3456 39.6492 41.0368 -2.62051 -0.038119 1.53656 26.605 4.49629 82.0588 -171.009 38.8626 169.954 5.04507 -19.6997 -1.44179 9.27431 -18.9849 24.7545 28.6582 5.68917 85.2194 172.81 39.6962 175.345 -6.96419 -28.1597 1.55431 3.00958 -12.1416 -27.2854 
-65.3576 42.119 18.1587 -19.3274 -78.9906 -110.597 -70.1915 0 88.8779 159.104 24.1201 -85.3759 -13.5541 26.5361 1.10845 -153.201 20.4747 175.001 -159.776 59.9417 -173.591 -0.199371 -25.3353 -24.3257 -78.6224 -21.4199 -127.131 -39.948 -29.3911 -58.8439 0.89684 0.0130288 1.9378 -2.54789 16.1541 29.0982 -81.2415 16.9252 139.976 -29.5158 39.6955 41.2068 -2.62014 -0.0380985 1.53559 26.3467 4.42409 82.0931 -171.014 39.1771 170.168 4.8949 -19.7174 -1.44949 9.26784 -18.9842 24.3715 28.3577 5.60734 85.2215 172.789 39.9944 175.427 -7.05236 -28.0815 1.54174 2.99659 -12.2724 -27.3301 
-65.36 42.3418 18.1118 -18.9802 -79.0138 -110.208 -70.1915 0 88.8779 159.133 24.0465 -85.3019 -13.599 26.4628 1.10534 -153.256 20.4517 175.039 -159.869 59.9265 -173.561 -0.186881 -25.2763 -24.3006 -78.7134 -21.3444 -127.178 -39.9923 -29.4028 -58.8741 0.89783 0.0130212 1.9374 -2.55799 16.1693 29.1492 -81.2213 17.0492 139.941 -29.7248 39.7742 41.4018 -2.62289 -0.0381299 1.5344 26.1153 4.35259 82.1389 -171.011 39.5192 170.342 4.6408 -19.7258 -1.46169 9.24618 -18.9649 23.8841 28.0642 5.51648 85.2411 172.776 40.3085 175.444 -7.09833 -28.0195 1.53511 2.98142 -12.4082 -27.3402 
-65.3719 42.5769 18.0568 -18.578 -79.0353 -109.77 -70.1915 0 88.8779 159.158 23.9741 -85.2218 -13.6507 26.399 1.09415 -153.292 20.4334 175.062 -159.93 59.9126 -173.553 -0.175957 -25.2326 -24.2681 -78.7755 -21.3015 -127.208 -40.0954 -29.4517 -58.9277 0.89579 0.0129627 1.93283 -2.56479 16.1559 29.2123 -81.2127 17.1464 139.9 -29.8925 39.8147 41.5714 -2.6243 -0.0382053 1.53709 25.887 4.28032 82.1973 -171.005 39.8745 170.484 4.39374 -19.7085 -1.4725 9.22388 -18.9417 23.4236 27.7647 5.42311 85.2684 172.768 40.6343 175.426 -7.15222 -27.9603 1.52782 2.96287 -12.5547 -27.312 
-65.3859 42.8191 18.0024 -18.2019 -79.059 -109.361 -70.1915 0 88.8779 159.191 23.9072 -85.1462 -13.7166 26.3478 1.08692 -153.274 20.4266 175.061 -159.936 59.9047 -173.573 -0.168628 -25.2043 -24.2423 -78.8053 -21.2632 -127.211 -40.2395 -29.5244 -58.9992 0.889876 0.0128535 1.92399 -2.56957 16.1288 29.2781 -81.2123 17.1653 139.84 -29.938 39.7468 41.6643 -2.61991 -0.0383169 1.54778 25.638 4.20579 82.2694 -170.997 40.2283 170.601 4.26466 -19.6488 -1.47604 9.21436 -18.9314 23.1211 27.446 5.33364 85.2932 172.76 40.9675 175.399 -7.2641 -27.8907 1.51329 2.93984 -12.7178 -27.2418 
-65.395 43.0634 17.9576 -17.8691 -79.0868 -108.995 -70.1915 0 88.8779 159.239 23.8467 -85.0763 -13.7979 26.318 1.08074 -153.187 20.4391 175.021 -159.855 59.9072 -173.64 -0.166889 -25.192 -24.237 -78.7859 -21.2459 -127.185 -40.4882 -29.661 -59.1141 0.877254 0.0126467 1.90689 -2.57369 16.1032 29.3375 -81.2217 17.0754 139.749 -29.788 39.5138 41.6311 -2.60634 -0.0384745 1.57041 25.3631 4.12845 82.3573 -170.986 40.5802 170.682 4.31082 -19.4955 -1.4675 9.24784 -18.9741 23.038 27.1042 5.24987 85.3125 172.753 41.3113 175.352 -7.45435 -27.8045 1.48878 2.91046 -12.8986 -27.0895 
-65.3971 43.3086 17.9239 -17.5375 -79.1164 -108.633 -70.1915 0 88.8779 159.294 23.7904 -85.0069 -13.8908 26.3055 1.07121 -153.051 20.4651 174.951 -159.709 59.9165 -173.748 -0.173306 -25.2042 -24.2591 -78.7243 -21.2563 -127.135 -40.8291 -29.8534 -59.2675 0.859244 0.0123579 1.8829 -2.57553 16.0778 29.3807 -81.2425 16.9102 139.639 -29.5041 39.1657 41.5133 -2.58669 -0.0386783 1.60183 25.0745 4.04915 82.4597 -170.97 40.9368 170.727 4.46372 -19.2728 -1.45115 9.30799 -19.0498 23.0956 26.7465 5.16834 85.3315 172.75 41.6665 175.274 -7.69385 -27.7098 1.45816 2.87692 -13.0945 -26.8699 
-65.396 43.5574 17.8967 -17.1999 -79.1454 -108.271 -70.1915 0 88.8779 159.346 23.7381 -84.939 -13.9955 26.2931 1.06818 -152.887 20.4917 174.88 -159.549 59.9252 -173.852 -0.186159 -25.238 -24.2999 -78.6537 -21.2531 -127.064 -41.1295 -30.0172 -59.4071 0.841231 0.0120808 1.85997 -2.575 16.0465 29.4151 -81.2708 16.7136 139.523 -29.2066 38.7939 41.3947 -2.56624 -0.0389059 1.63553 24.7749 3.96849 82.5727 -170.951 41.2943 170.757 4.64578 -19.0784 -1.43467 9.33774 -19.086 23.2147 26.376 5.0874 85.3532 172.747 42.0253 175.201 -7.95842 -27.6142 1.42478 2.84359 -13.3056 -26.662 
